<svg xmlns="http://www.w3.org/2000/svg" xmlns:xlink="http://www.w3.org/1999/xlink" width="378" zoomAndPan="magnify" viewBox="0 0 282.96 283.499989" height="378" preserveAspectRatio="xMidYMid meet" version="1.0"><defs><clipPath id="e7ddbd7257"><path d="M 36.28125 35 L 247.410156 35 L 247.410156 254 L 36.28125 254 Z M 36.28125 35 " clip-rule="nonzero"/></clipPath></defs><g clip-path="url(#e7ddbd7257)"><path fill="#ffffff" d="M 175.34375 180.152344 L 198.976562 147.769531 C 200.253906 146.019531 201.449219 144.210938 202.5625 142.351562 C 203.671875 140.488281 204.699219 138.582031 205.636719 136.625 C 206.574219 134.667969 207.417969 132.675781 208.171875 130.640625 C 208.925781 128.609375 209.585938 126.542969 210.152344 124.449219 C 210.71875 122.355469 211.183594 120.242188 211.554688 118.105469 C 211.925781 115.96875 212.199219 113.820312 212.371094 111.65625 C 212.546875 109.496094 212.621094 107.328125 212.59375 105.160156 C 212.570312 102.992188 212.445312 100.828125 212.222656 98.671875 C 211.996094 96.515625 211.675781 94.375 211.253906 92.246094 C 210.835938 90.117188 210.316406 88.015625 209.703125 85.933594 C 209.089844 83.855469 208.382812 81.804688 207.582031 79.792969 C 206.78125 77.777344 205.886719 75.800781 204.90625 73.867188 C 203.921875 71.933594 202.855469 70.050781 201.699219 68.214844 C 200.542969 66.378906 199.304688 64.601562 197.988281 62.878906 C 196.667969 61.160156 195.273438 59.5 193.804688 57.90625 C 192.332031 56.3125 190.792969 54.789062 189.179688 53.339844 C 187.570312 51.886719 185.894531 50.511719 184.160156 49.210938 C 182.421875 47.914062 180.628906 46.699219 178.78125 45.5625 C 176.933594 44.429688 175.035156 43.382812 173.089844 42.421875 C 171.148438 41.460938 169.164062 40.59375 167.136719 39.816406 C 165.113281 39.039062 163.058594 38.355469 160.972656 37.765625 C 158.882812 37.175781 156.773438 36.683594 154.640625 36.289062 C 152.507812 35.890625 150.363281 35.59375 148.203125 35.394531 C 146.042969 35.199219 143.878906 35.097656 141.710938 35.097656 C 139.542969 35.097656 137.378906 35.199219 135.21875 35.394531 C 133.058594 35.59375 130.914062 35.890625 128.78125 36.289062 C 126.648438 36.683594 124.539062 37.175781 122.453125 37.765625 C 120.367188 38.355469 118.308594 39.039062 116.285156 39.816406 C 114.261719 40.59375 112.277344 41.460938 110.332031 42.421875 C 108.386719 43.382812 106.492188 44.429688 104.640625 45.5625 C 102.792969 46.699219 101 47.914062 99.265625 49.210938 C 97.527344 50.511719 95.851562 51.886719 94.242188 53.339844 C 92.632812 54.789062 91.089844 56.3125 89.621094 57.90625 C 88.148438 59.5 86.753906 61.160156 85.4375 62.878906 C 84.117188 64.601562 82.878906 66.378906 81.722656 68.214844 C 80.570312 70.050781 79.5 71.933594 78.515625 73.867188 C 77.535156 75.800781 76.644531 77.777344 75.839844 79.792969 C 75.039062 81.804688 74.332031 83.855469 73.71875 85.933594 C 73.105469 88.015625 72.589844 90.117188 72.167969 92.246094 C 71.75 94.375 71.425781 96.515625 71.203125 98.671875 C 70.980469 100.828125 70.855469 102.992188 70.828125 105.160156 C 70.804688 107.328125 70.878906 109.496094 71.050781 111.65625 C 71.226562 113.820312 71.496094 115.96875 71.867188 118.105469 C 72.238281 120.242188 72.707031 122.355469 73.269531 124.449219 C 73.835938 126.542969 74.496094 128.609375 75.25 130.640625 C 76.003906 132.675781 76.851562 134.667969 77.789062 136.625 C 78.726562 138.582031 79.75 140.488281 80.863281 142.351562 C 81.976562 144.210938 83.171875 146.019531 84.449219 147.769531 L 108.085938 180.160156 C 68.816406 184.527344 36.28125 196.6875 36.28125 216.117188 C 36.28125 240.929688 89.320312 253.910156 141.710938 253.910156 C 194.101562 253.910156 247.140625 240.929688 247.140625 216.117188 C 247.140625 196.683594 214.613281 184.519531 175.34375 180.152344 Z M 94.089844 140.734375 C 93.027344 139.277344 92.03125 137.773438 91.105469 136.226562 C 90.183594 134.679688 89.328125 133.089844 88.550781 131.464844 C 87.769531 129.839844 87.066406 128.179688 86.4375 126.488281 C 85.8125 124.796875 85.261719 123.082031 84.792969 121.339844 C 84.324219 119.597656 83.933594 117.839844 83.625 116.0625 C 83.316406 114.285156 83.089844 112.5 82.945312 110.699219 C 82.804688 108.902344 82.742188 107.101562 82.761719 105.300781 C 82.78125 103.496094 82.886719 101.695312 83.074219 99.902344 C 83.257812 98.109375 83.527344 96.328125 83.875 94.558594 C 84.226562 92.789062 84.65625 91.039062 85.164062 89.308594 C 85.675781 87.578125 86.265625 85.875 86.929688 84.199219 C 87.597656 82.523438 88.339844 80.882812 89.15625 79.273438 C 89.972656 77.667969 90.863281 76.097656 91.824219 74.574219 C 92.785156 73.046875 93.8125 71.566406 94.910156 70.136719 C 96.007812 68.703125 97.164062 67.324219 98.390625 66 C 99.613281 64.675781 100.894531 63.410156 102.234375 62.199219 C 103.574219 60.992188 104.964844 59.847656 106.410156 58.769531 C 107.855469 57.6875 109.34375 56.675781 110.882812 55.734375 C 112.417969 54.792969 113.996094 53.921875 115.613281 53.121094 C 117.230469 52.324219 118.882812 51.601562 120.566406 50.953125 C 122.25 50.308594 123.957031 49.738281 125.695312 49.25 C 127.429688 48.757812 129.183594 48.347656 130.957031 48.019531 C 132.730469 47.691406 134.515625 47.445312 136.3125 47.277344 C 138.105469 47.113281 139.90625 47.03125 141.710938 47.03125 C 143.515625 47.03125 145.3125 47.113281 147.109375 47.277344 C 148.90625 47.445312 150.691406 47.691406 152.464844 48.019531 C 154.238281 48.347656 155.992188 48.757812 157.726562 49.25 C 159.464844 49.738281 161.171875 50.308594 162.855469 50.953125 C 164.539062 51.601562 166.191406 52.324219 167.808594 53.121094 C 169.425781 53.921875 171.003906 54.792969 172.539062 55.734375 C 174.078125 56.675781 175.566406 57.6875 177.011719 58.769531 C 178.457031 59.847656 179.847656 60.992188 181.1875 62.199219 C 182.527344 63.410156 183.808594 64.675781 185.03125 66 C 186.253906 67.324219 187.414062 68.703125 188.511719 70.136719 C 189.609375 71.566406 190.636719 73.046875 191.597656 74.574219 C 192.558594 76.097656 193.449219 77.667969 194.265625 79.273438 C 195.082031 80.882812 195.824219 82.523438 196.492188 84.199219 C 197.15625 85.875 197.746094 87.578125 198.253906 89.308594 C 198.765625 91.039062 199.195312 92.789062 199.546875 94.558594 C 199.894531 96.328125 200.164062 98.109375 200.347656 99.902344 C 200.535156 101.695312 200.636719 103.496094 200.660156 105.300781 C 200.679688 107.101562 200.617188 108.902344 200.472656 110.699219 C 200.328125 112.5 200.101562 114.285156 199.796875 116.0625 C 199.488281 117.839844 199.097656 119.597656 198.628906 121.339844 C 198.15625 123.082031 197.609375 124.796875 196.980469 126.488281 C 196.355469 128.179688 195.652344 129.839844 194.871094 131.464844 C 194.09375 133.089844 193.238281 134.679688 192.3125 136.226562 C 191.390625 137.773438 190.394531 139.277344 189.332031 140.734375 L 141.710938 205.992188 Z M 141.710938 241.976562 C 84.640625 241.976562 48.214844 226.660156 48.214844 216.117188 C 48.214844 207.242188 74.074219 195.023438 116.261719 191.367188 L 136.890625 219.632812 C 137.167969 220.011719 137.484375 220.355469 137.839844 220.660156 C 138.199219 220.964844 138.585938 221.222656 139.007812 221.4375 C 139.425781 221.648438 139.863281 221.808594 140.320312 221.917969 C 140.777344 222.027344 141.242188 222.082031 141.710938 222.082031 C 142.179688 222.082031 142.644531 222.027344 143.101562 221.917969 C 143.558594 221.808594 143.996094 221.648438 144.414062 221.4375 C 144.832031 221.222656 145.222656 220.964844 145.578125 220.660156 C 145.9375 220.355469 146.253906 220.011719 146.53125 219.632812 L 167.160156 191.367188 C 209.355469 195.019531 235.203125 207.242188 235.203125 216.117188 C 235.203125 226.660156 198.78125 241.976562 141.710938 241.976562 Z M 141.710938 241.976562 " fill-opacity="1" fill-rule="nonzero"/></g><path fill="#ffffff" d="M 176.496094 105.984375 C 176.496094 104.847656 176.4375 103.710938 176.328125 102.574219 C 176.214844 101.441406 176.050781 100.316406 175.828125 99.199219 C 175.605469 98.082031 175.328125 96.976562 174.996094 95.886719 C 174.667969 94.796875 174.285156 93.726562 173.847656 92.675781 C 173.410156 91.621094 172.925781 90.59375 172.386719 89.589844 C 171.851562 88.582031 171.265625 87.609375 170.632812 86.660156 C 170 85.714844 169.324219 84.800781 168.601562 83.917969 C 167.878906 83.039062 167.113281 82.195312 166.308594 81.390625 C 165.503906 80.582031 164.660156 79.820312 163.777344 79.097656 C 162.898438 78.375 161.984375 77.695312 161.035156 77.0625 C 160.089844 76.429688 159.113281 75.84375 158.109375 75.308594 C 157.105469 74.773438 156.074219 74.285156 155.023438 73.847656 C 153.972656 73.414062 152.898438 73.03125 151.808594 72.699219 C 150.71875 72.367188 149.617188 72.09375 148.5 71.871094 C 147.382812 71.648438 146.253906 71.480469 145.121094 71.367188 C 143.988281 71.257812 142.851562 71.199219 141.710938 71.199219 C 140.574219 71.199219 139.4375 71.257812 138.304688 71.367188 C 137.167969 71.480469 136.042969 71.648438 134.925781 71.871094 C 133.808594 72.089844 132.707031 72.367188 131.617188 72.699219 C 130.527344 73.027344 129.453125 73.414062 128.402344 73.847656 C 127.347656 74.285156 126.320312 74.769531 125.316406 75.308594 C 124.3125 75.84375 123.335938 76.429688 122.386719 77.0625 C 121.441406 77.695312 120.527344 78.375 119.644531 79.097656 C 118.765625 79.820312 117.921875 80.582031 117.117188 81.386719 C 116.3125 82.195312 115.546875 83.035156 114.824219 83.917969 C 114.101562 84.796875 113.425781 85.710938 112.792969 86.660156 C 112.160156 87.605469 111.574219 88.582031 111.035156 89.585938 C 110.5 90.589844 110.011719 91.621094 109.578125 92.671875 C 109.140625 93.726562 108.757812 94.796875 108.425781 95.886719 C 108.097656 96.976562 107.820312 98.082031 107.597656 99.199219 C 107.375 100.316406 107.207031 101.441406 107.097656 102.574219 C 106.984375 103.707031 106.929688 104.84375 106.929688 105.984375 C 106.929688 107.121094 106.984375 108.257812 107.097656 109.390625 C 107.207031 110.527344 107.375 111.652344 107.597656 112.769531 C 107.820312 113.886719 108.09375 114.988281 108.425781 116.082031 C 108.757812 117.171875 109.140625 118.242188 109.574219 119.292969 C 110.011719 120.347656 110.5 121.375 111.035156 122.378906 C 111.574219 123.382812 112.15625 124.359375 112.789062 125.308594 C 113.421875 126.253906 114.101562 127.167969 114.824219 128.050781 C 115.546875 128.929688 116.308594 129.773438 117.117188 130.578125 C 117.921875 131.382812 118.765625 132.148438 119.644531 132.871094 C 120.527344 133.59375 121.4375 134.273438 122.386719 134.90625 C 123.332031 135.539062 124.308594 136.121094 125.3125 136.660156 C 126.320312 137.195312 127.347656 137.683594 128.398438 138.121094 C 129.453125 138.554688 130.523438 138.9375 131.613281 139.269531 C 132.703125 139.601562 133.808594 139.875 134.925781 140.097656 C 136.042969 140.320312 137.167969 140.488281 138.300781 140.601562 C 139.433594 140.710938 140.570312 140.765625 141.710938 140.765625 C 142.847656 140.765625 143.984375 140.710938 145.117188 140.597656 C 146.253906 140.484375 147.378906 140.316406 148.492188 140.09375 C 149.609375 139.871094 150.714844 139.59375 151.804688 139.261719 C 152.894531 138.929688 153.964844 138.546875 155.015625 138.109375 C 156.066406 137.671875 157.09375 137.1875 158.101562 136.648438 C 159.105469 136.113281 160.078125 135.527344 161.027344 134.894531 C 161.972656 134.261719 162.886719 133.582031 163.765625 132.859375 C 164.648438 132.136719 165.488281 131.375 166.296875 130.570312 C 167.101562 129.761719 167.863281 128.921875 168.585938 128.039062 C 169.308594 127.160156 169.988281 126.246094 170.621094 125.300781 C 171.253906 124.351562 171.839844 123.378906 172.375 122.375 C 172.914062 121.371094 173.398438 120.339844 173.835938 119.289062 C 174.273438 118.238281 174.65625 117.167969 174.988281 116.078125 C 175.320312 114.988281 175.597656 113.886719 175.820312 112.769531 C 176.042969 111.652344 176.210938 110.527344 176.324219 109.394531 C 176.4375 108.261719 176.492188 107.125 176.496094 105.984375 Z M 118.863281 105.984375 C 118.863281 105.238281 118.898438 104.488281 118.972656 103.746094 C 119.046875 103 119.15625 102.261719 119.300781 101.527344 C 119.449219 100.792969 119.628906 100.070312 119.847656 99.351562 C 120.066406 98.636719 120.316406 97.933594 120.601562 97.242188 C 120.890625 96.550781 121.207031 95.875 121.5625 95.214844 C 121.914062 94.554688 122.296875 93.914062 122.714844 93.292969 C 123.128906 92.667969 123.574219 92.070312 124.050781 91.488281 C 124.523438 90.910156 125.027344 90.359375 125.554688 89.828125 C 126.085938 89.300781 126.636719 88.796875 127.214844 88.324219 C 127.796875 87.847656 128.394531 87.402344 129.019531 86.988281 C 129.640625 86.570312 130.28125 86.1875 130.941406 85.835938 C 131.601562 85.480469 132.277344 85.164062 132.96875 84.875 C 133.660156 84.589844 134.363281 84.335938 135.078125 84.121094 C 135.796875 83.902344 136.519531 83.722656 137.253906 83.574219 C 137.988281 83.429688 138.726562 83.320312 139.472656 83.246094 C 140.214844 83.171875 140.964844 83.136719 141.710938 83.136719 C 142.460938 83.136719 143.207031 83.171875 143.949219 83.246094 C 144.695312 83.320312 145.433594 83.429688 146.167969 83.574219 C 146.902344 83.722656 147.628906 83.902344 148.34375 84.121094 C 149.058594 84.335938 149.761719 84.589844 150.453125 84.875 C 151.144531 85.160156 151.820312 85.480469 152.480469 85.835938 C 153.140625 86.1875 153.78125 86.570312 154.40625 86.988281 C 155.027344 87.402344 155.628906 87.847656 156.207031 88.324219 C 156.785156 88.796875 157.339844 89.300781 157.867188 89.828125 C 158.394531 90.359375 158.898438 90.910156 159.371094 91.488281 C 159.847656 92.066406 160.292969 92.667969 160.707031 93.289062 C 161.125 93.914062 161.507812 94.554688 161.859375 95.214844 C 162.214844 95.875 162.535156 96.550781 162.820312 97.242188 C 163.105469 97.933594 163.359375 98.636719 163.574219 99.351562 C 163.792969 100.066406 163.972656 100.792969 164.121094 101.527344 C 164.265625 102.261719 164.375 103 164.449219 103.746094 C 164.523438 104.488281 164.558594 105.234375 164.558594 105.984375 C 164.558594 106.734375 164.523438 107.480469 164.449219 108.222656 C 164.375 108.96875 164.265625 109.707031 164.121094 110.441406 C 163.972656 111.175781 163.792969 111.902344 163.574219 112.617188 C 163.359375 113.332031 163.105469 114.035156 162.820312 114.726562 C 162.535156 115.417969 162.214844 116.09375 161.859375 116.753906 C 161.507812 117.414062 161.125 118.054688 160.707031 118.679688 C 160.292969 119.300781 159.847656 119.902344 159.371094 120.480469 C 158.898438 121.058594 158.394531 121.609375 157.867188 122.140625 C 157.335938 122.667969 156.785156 123.171875 156.207031 123.644531 C 155.628906 124.121094 155.027344 124.566406 154.40625 124.980469 C 153.78125 125.398438 153.140625 125.78125 152.480469 126.132812 C 151.820312 126.488281 151.144531 126.808594 150.453125 127.09375 C 149.761719 127.378906 149.058594 127.632812 148.34375 127.847656 C 147.628906 128.066406 146.902344 128.246094 146.167969 128.394531 C 145.433594 128.539062 144.695312 128.648438 143.949219 128.722656 C 143.207031 128.796875 142.457031 128.832031 141.710938 128.832031 C 140.960938 128.832031 140.214844 128.792969 139.472656 128.71875 C 138.726562 128.644531 137.988281 128.535156 137.253906 128.390625 C 136.523438 128.242188 135.796875 128.058594 135.082031 127.84375 C 134.367188 127.625 133.664062 127.371094 132.972656 127.085938 C 132.28125 126.800781 131.605469 126.480469 130.945312 126.125 C 130.285156 125.773438 129.644531 125.390625 129.023438 124.972656 C 128.402344 124.558594 127.800781 124.113281 127.222656 123.636719 C 126.644531 123.164062 126.09375 122.660156 125.5625 122.132812 C 125.035156 121.605469 124.53125 121.050781 124.058594 120.472656 C 123.582031 119.894531 123.136719 119.292969 122.722656 118.671875 C 122.304688 118.050781 121.921875 117.410156 121.570312 116.75 C 121.214844 116.089844 120.894531 115.414062 120.609375 114.722656 C 120.324219 114.03125 120.070312 113.328125 119.851562 112.613281 C 119.636719 111.898438 119.453125 111.175781 119.308594 110.441406 C 119.160156 109.707031 119.050781 108.96875 118.976562 108.222656 C 118.902344 107.480469 118.863281 106.734375 118.863281 105.984375 Z M 118.863281 105.984375 " fill-opacity="1" fill-rule="nonzero"/></svg>