<svg xmlns="http://www.w3.org/2000/svg" xmlns:xlink="http://www.w3.org/1999/xlink" width="378" zoomAndPan="magnify" viewBox="0 0 282.96 283.499989" height="378" preserveAspectRatio="xMidYMid meet" version="1.0"><defs><clipPath id="d4d993edca"><path d="M 33.101562 33 L 250.21875 33 L 250.21875 249.988281 L 33.101562 249.988281 Z M 33.101562 33 " clip-rule="nonzero"/></clipPath></defs><g clip-path="url(#d4d993edca)"><path fill="#ffffff" d="M 223.019531 33.296875 L 60.34375 33.296875 C 45.390625 33.296875 33.101562 45.570312 33.101562 60.449219 L 33.101562 222.382812 C 33.101562 237.265625 45.390625 249.667969 60.34375 249.667969 L 141.285156 249.667969 L 141.285156 175 L 114.558594 175 L 114.558594 141.90625 L 141.285156 141.90625 L 141.285156 114.429688 C 141.285156 92.066406 159.890625 74.449219 182.351562 74.449219 L 210.015625 74.449219 L 210.015625 107.964844 L 195.90625 107.964844 C 188.425781 107.964844 182.441406 106.980469 182.441406 114.429688 L 182.441406 141.90625 L 216.246094 141.90625 L 202.6875 175 L 182.441406 175 L 182.441406 249.667969 L 223.019531 249.667969 C 237.976562 249.667969 250.324219 237.265625 250.324219 222.382812 L 250.324219 60.449219 C 250.324219 45.570312 237.976562 33.296875 223.019531 33.296875 Z M 223.019531 33.296875 " fill-opacity="1" fill-rule="nonzero"/></g></svg>