<svg xmlns="http://www.w3.org/2000/svg" xmlns:xlink="http://www.w3.org/1999/xlink" width="378" zoomAndPan="magnify" viewBox="0 0 282.96 283.499989" height="378" preserveAspectRatio="xMidYMid meet" version="1.0"><defs><clipPath id="13623a5c88"><path d="M 28.527344 28.296875 L 254.625 28.296875 L 254.625 254.398438 L 28.527344 254.398438 Z M 28.527344 28.296875 " clip-rule="nonzero"/></clipPath></defs><g clip-path="url(#13623a5c88)"><path fill="#ffffff" d="M 199.953125 254.667969 L 84.066406 254.667969 C 53.445312 254.667969 28.824219 230.046875 28.824219 199.425781 L 28.824219 83.539062 C 28.824219 52.914062 53.445312 28.296875 84.066406 28.296875 L 199.355469 28.296875 C 229.976562 28.296875 254.597656 52.914062 254.597656 83.539062 L 254.597656 198.824219 C 254.597656 229.449219 229.976562 254.066406 199.355469 254.066406 Z M 84.066406 46.308594 C 63.652344 46.308594 46.839844 63.121094 46.839844 83.539062 L 46.839844 198.824219 C 46.839844 219.238281 63.652344 236.054688 84.066406 236.054688 L 199.355469 236.054688 C 219.769531 236.054688 236.582031 219.238281 236.582031 198.824219 L 236.582031 83.539062 C 236.582031 63.121094 219.769531 46.308594 199.355469 46.308594 Z M 84.066406 46.308594 " fill-opacity="1" fill-rule="nonzero"/></g><path fill="#ffffff" d="M 142.3125 214.4375 C 102.679688 214.4375 70.859375 182.613281 70.859375 142.984375 C 70.859375 103.351562 102.679688 71.527344 142.3125 71.527344 C 181.941406 71.527344 213.765625 103.351562 213.765625 142.984375 C 213.765625 182.613281 181.941406 214.4375 142.3125 214.4375 Z M 142.3125 88.941406 C 112.289062 88.941406 88.269531 112.960938 88.269531 142.984375 C 88.269531 173.003906 112.289062 197.023438 142.3125 197.023438 C 172.332031 197.023438 196.351562 173.003906 196.351562 142.984375 C 196.351562 112.960938 172.332031 88.941406 142.3125 88.941406 Z M 142.3125 88.941406 " fill-opacity="1" fill-rule="nonzero"/><path fill="#ffffff" d="M 142.3125 175.40625 C 124.296875 175.40625 109.886719 160.996094 109.886719 142.984375 C 109.886719 124.96875 124.296875 110.558594 142.3125 110.558594 C 160.324219 110.558594 174.734375 124.96875 174.734375 142.984375 C 174.734375 160.996094 160.324219 175.40625 142.3125 175.40625 Z M 142.3125 128.570312 C 134.503906 128.570312 127.902344 135.175781 127.902344 142.984375 C 127.902344 150.789062 134.503906 157.394531 142.3125 157.394531 C 150.117188 157.394531 156.722656 150.789062 156.722656 142.984375 C 156.722656 135.175781 150.117188 128.570312 142.3125 128.570312 Z M 142.3125 128.570312 " fill-opacity="1" fill-rule="nonzero"/><path fill="#ffffff" d="M 219.769531 75.730469 C 219.769531 76.519531 219.691406 77.300781 219.539062 78.074219 C 219.386719 78.847656 219.15625 79.597656 218.855469 80.328125 C 218.554688 81.054688 218.183594 81.75 217.746094 82.402344 C 217.308594 83.058594 216.808594 83.667969 216.253906 84.222656 C 215.695312 84.78125 215.089844 85.28125 214.433594 85.71875 C 213.777344 86.15625 213.085938 86.527344 212.355469 86.828125 C 211.628906 87.128906 210.875 87.355469 210.101562 87.511719 C 209.328125 87.664062 208.550781 87.742188 207.761719 87.742188 C 206.972656 87.742188 206.191406 87.664062 205.417969 87.511719 C 204.644531 87.355469 203.894531 87.128906 203.164062 86.828125 C 202.4375 86.527344 201.746094 86.15625 201.089844 85.71875 C 200.433594 85.28125 199.828125 84.78125 199.269531 84.222656 C 198.710938 83.667969 198.214844 83.058594 197.773438 82.402344 C 197.335938 81.75 196.96875 81.054688 196.664062 80.328125 C 196.363281 79.597656 196.136719 78.847656 195.980469 78.074219 C 195.828125 77.300781 195.75 76.519531 195.75 75.730469 C 195.75 74.945312 195.828125 74.164062 195.980469 73.390625 C 196.136719 72.617188 196.363281 71.863281 196.664062 71.136719 C 196.96875 70.40625 197.335938 69.714844 197.773438 69.058594 C 198.214844 68.40625 198.710938 67.796875 199.269531 67.242188 C 199.828125 66.683594 200.433594 66.183594 201.089844 65.746094 C 201.746094 65.308594 202.4375 64.9375 203.164062 64.636719 C 203.894531 64.335938 204.644531 64.109375 205.417969 63.953125 C 206.191406 63.800781 206.972656 63.722656 207.761719 63.722656 C 208.550781 63.722656 209.328125 63.800781 210.101562 63.953125 C 210.875 64.109375 211.628906 64.335938 212.355469 64.636719 C 213.085938 64.9375 213.777344 65.308594 214.433594 65.746094 C 215.089844 66.183594 215.695312 66.683594 216.253906 67.242188 C 216.808594 67.796875 217.308594 68.40625 217.746094 69.058594 C 218.183594 69.714844 218.554688 70.40625 218.855469 71.136719 C 219.15625 71.863281 219.386719 72.617188 219.539062 73.390625 C 219.691406 74.164062 219.769531 74.945312 219.769531 75.730469 Z M 219.769531 75.730469 " fill-opacity="1" fill-rule="nonzero"/></svg>