<svg xmlns="http://www.w3.org/2000/svg" xmlns:xlink="http://www.w3.org/1999/xlink" width="378" zoomAndPan="magnify" viewBox="0 0 282.96 283.499989" height="378" preserveAspectRatio="xMidYMid meet" version="1.0"><defs><clipPath id="3d0756a12f"><path d="M 32.363281 32.132812 L 250.976562 32.132812 L 250.976562 250.746094 L 32.363281 250.746094 Z M 32.363281 32.132812 " clip-rule="nonzero"/></clipPath></defs><path fill="#ffffff" d="M 192.1875 190.636719 C 188.277344 194.546875 181.769531 198.300781 177.96875 198.839844 C 173.785156 199.433594 169.59375 199.503906 165.484375 199.0625 C 156.304688 198.070312 147.222656 194.53125 137.722656 188.226562 C 130.699219 183.570312 123.433594 177.40625 114.855469 168.832031 C 113.226562 167.199219 111.535156 165.445312 109.820312 163.585938 C 98.070312 150.898438 79.117188 126.53125 84.207031 105.925781 C 85.230469 101.796875 87.195312 97.914062 90.082031 94.339844 C 90.902344 93.304688 91.828125 92.273438 92.828125 91.273438 L 100.210938 83.808594 L 114.378906 97.980469 C 115.8125 99.410156 116.597656 101.328125 116.597656 103.375 C 116.59375 105.425781 115.808594 107.347656 114.367188 108.78125 L 111.367188 111.785156 C 105.066406 118.085938 104.046875 128.003906 108.945312 135.371094 C 119.980469 151.957031 133.5625 165.253906 150.460938 176.027344 C 156.382812 179.792969 164.925781 178.835938 169.925781 173.835938 L 174.679688 169.082031 C 175.214844 168.546875 175.832031 168.09375 176.503906 167.734375 C 179.445312 166.1875 183.140625 166.746094 185.484375 169.085938 L 199.613281 183.214844 Z M 208.109375 177.101562 L 192.792969 161.785156 C 187.277344 156.273438 178.605469 154.953125 171.675781 158.605469 C 170.082031 159.449219 168.628906 160.515625 167.371094 161.785156 L 162.617188 166.53125 C 161.050781 168.101562 157.839844 168.476562 156.011719 167.3125 C 140.351562 157.332031 127.769531 145.015625 117.546875 129.652344 C 115.363281 126.363281 115.835938 121.925781 118.667969 119.085938 L 121.671875 116.085938 C 125.058594 112.703125 126.925781 108.191406 126.925781 103.382812 C 126.925781 98.570312 125.070312 94.054688 121.679688 90.671875 L 106.359375 75.351562 C 105.550781 74.542969 104.089844 73.519531 101.75 73.238281 C 98.710938 72.863281 95.5 73.996094 93.230469 76.253906 L 85.523438 83.964844 C 84.246094 85.246094 83.054688 86.582031 82.015625 87.886719 C 78.207031 92.605469 75.566406 97.839844 74.179688 103.449219 C 68.242188 127.488281 86.164062 153.242188 102.230469 170.597656 C 104.035156 172.554688 105.820312 174.40625 107.550781 176.132812 C 116.628906 185.214844 124.402344 191.792969 132.015625 196.835938 C 142.929688 204.074219 153.515625 208.160156 164.375 209.332031 C 166.503906 209.5625 168.65625 209.679688 170.8125 209.679688 C 173.675781 209.679688 176.554688 209.476562 179.414062 209.070312 C 186.261719 208.101562 194.695312 202.738281 199.492188 197.941406 L 207.203125 190.230469 C 209.464844 187.96875 210.597656 184.78125 210.214844 181.714844 C 209.992188 179.832031 209.285156 178.285156 208.109375 177.101562 " fill-opacity="1" fill-rule="nonzero"/><g clip-path="url(#3d0756a12f)"><path fill="#ffffff" d="M 141.652344 42.59375 C 87.15625 42.59375 42.824219 86.929688 42.824219 141.421875 C 42.824219 195.917969 87.15625 240.25 141.652344 240.25 C 196.148438 240.25 240.480469 195.917969 240.480469 141.421875 C 240.480469 86.929688 196.148438 42.59375 141.652344 42.59375 Z M 141.652344 250.746094 C 81.367188 250.746094 32.328125 201.707031 32.328125 141.421875 C 32.328125 81.140625 81.367188 32.097656 141.652344 32.097656 C 201.9375 32.097656 250.976562 81.140625 250.976562 141.421875 C 250.976562 201.707031 201.9375 250.746094 141.652344 250.746094 " fill-opacity="1" fill-rule="nonzero"/></g></svg>